<svg version="1.1" id="Layer_1" xmlns="http://www.w3.org/2000/svg" xmlns:xlink="http://www.w3.org/1999/xlink" viewBox="0 0 512 512" xml:space="preserve" fill="#000000"><g id="SVGRepo_bgCarrier" stroke-width="0"></g><g id="SVGRepo_tracerCarrier" stroke-linecap="round" stroke-linejoin="round"></g><g id="SVGRepo_iconCarrier"> <circle style="fill:#E0E0E0;" cx="256" cy="256" r="256"></circle> <rect x="64" y="164" style="fill:#3B3B3B;" width="384" height="232"></rect> <rect x="64" y="116" width="384" height="48.08"></rect> <circle style="fill:#00C454;" cx="97.144" cy="140.04" r="6.696"></circle> <circle style="fill:#FFFFFF;" cx="117.224" cy="140.04" r="6.696"></circle> <g> <circle style="fill:#666666;" cx="137.28" cy="140.04" r="6.696"></circle> <polygon style="fill:#666666;" points="400,151.8 192.328,151.8 206.672,128.288 414.352,128.288 "></polygon> </g> <g> <path style="fill:#FFFFFF;" d="M221.784,134.792l1.392,5.344c0.304,1.168,0.584,2.256,0.784,3.344h0.064 c0.24-1.064,0.584-2.192,0.936-3.32l1.712-5.368h1.608l1.632,5.256c0.392,1.256,0.696,2.368,0.928,3.432h0.072 c0.168-1.064,0.456-2.168,0.808-3.408l1.504-5.28h1.888l-3.392,10.512h-1.744l-1.608-5.016c-0.368-1.176-0.672-2.216-0.928-3.464 h-0.048c-0.256,1.264-0.584,2.352-0.952,3.48l-1.696,5H223l-3.168-10.512L221.784,134.792L221.784,134.792z"></path> <path style="fill:#FFFFFF;" d="M238,134.792l1.392,5.344c0.304,1.168,0.584,2.256,0.784,3.344h0.072 c0.232-1.064,0.584-2.192,0.928-3.32l1.72-5.368h1.608l1.624,5.256c0.392,1.256,0.696,2.368,0.936,3.432h0.064 c0.168-1.064,0.464-2.168,0.808-3.408l1.504-5.28h1.888l-3.392,10.512H246.2l-1.608-5.016c-0.368-1.176-0.672-2.216-0.936-3.464 h-0.04c-0.264,1.264-0.584,2.352-0.96,3.48l-1.696,5h-1.736l-3.168-10.512L238,134.792L238,134.792z"></path> <path style="fill:#FFFFFF;" d="M254.216,134.792l1.392,5.344c0.304,1.168,0.584,2.256,0.784,3.344h0.072 c0.232-1.064,0.584-2.192,0.928-3.32l1.72-5.368h1.608l1.624,5.256c0.392,1.256,0.696,2.368,0.936,3.432h0.064 c0.168-1.064,0.464-2.168,0.808-3.408l1.504-5.28h1.888l-3.392,10.512h-1.736l-1.616-5.016c-0.368-1.176-0.672-2.216-0.936-3.464 h-0.04c-0.264,1.264-0.584,2.352-0.96,3.48l-1.696,5h-1.728l-3.168-10.512L254.216,134.792L254.216,134.792z"></path> </g> <g> <polygon style="fill:#666666;" points="64,372.688 126.144,372.688 149.456,396 64,396 "></polygon> <polygon style="fill:#666666;" points="448,372.688 385.856,372.688 362.544,396 448,396 "></polygon> </g> <path style="fill:#00C454;" d="M335.72,289.4v-23.904l-24.328-2.432c-1.384-5.12-3.528-9.928-6.24-14.336l15.688-19.168 l-16.904-16.904L284,228.976c-4.168-2.2-8.648-3.888-13.368-4.944l-2.624-26.256h-11.952h-0.112h-11.952l-2.624,26.256 c-4.72,1.064-9.2,2.752-13.368,4.944l-19.936-16.32L191.16,229.56l15.688,19.168c-2.72,4.408-4.856,9.216-6.24,14.336l-24.328,2.432 V289.4l24.368,2.44c1.4,5.104,3.504,9.92,6.216,14.32l-15.696,19.184l16.904,16.904l19.936-16.312 c4.176,2.2,8.656,3.88,13.376,4.944l2.624,26.256h11.952h0.096H268l2.624-26.256c4.72-1.064,9.2-2.752,13.376-4.944l19.936,16.312 l16.904-16.904l-15.696-19.184c2.712-4.4,4.816-9.216,6.216-14.32L335.72,289.4z M255.992,313.4 c-19.856,0-35.952-16.096-35.952-35.952s16.096-35.952,35.952-35.952s35.952,16.096,35.952,35.952S275.848,313.4,255.992,313.4z"></path> <circle style="fill:#FFFFFF;" cx="256" cy="277.448" r="21.264"></circle> </g></svg>
