<svg version="1.1" id="Layer_1" xmlns="http://www.w3.org/2000/svg" xmlns:xlink="http://www.w3.org/1999/xlink" viewBox="0 0 512 512" xml:space="preserve" fill="#000000"><g id="SVGRepo_bgCarrier" stroke-width="0"></g><g id="SVGRepo_tracerCarrier" stroke-linecap="round" stroke-linejoin="round"></g><g id="SVGRepo_iconCarrier"> <circle style="fill:#E0E0E0;" cx="256" cy="256" r="256"></circle> <rect x="64" y="164" style="fill:#3B3B3B;" width="384" height="232"></rect> <rect x="64" y="116" width="384" height="48.08"></rect> <circle style="fill:#00C454;" cx="97.144" cy="140.04" r="6.696"></circle> <circle style="fill:#FFFFFF;" cx="117.224" cy="140.04" r="6.696"></circle> <g> <circle style="fill:#666666;" cx="137.28" cy="140.04" r="6.696"></circle> <polygon style="fill:#666666;" points="400,151.8 192.328,151.8 206.672,128.288 414.352,128.288 "></polygon> </g> <g> <path style="fill:#FFFFFF;" d="M221.784,134.792l1.392,5.344c0.304,1.168,0.584,2.256,0.784,3.344h0.064 c0.24-1.064,0.584-2.192,0.936-3.32l1.712-5.368h1.608l1.632,5.256c0.392,1.256,0.696,2.368,0.928,3.432h0.072 c0.168-1.064,0.456-2.168,0.808-3.408l1.504-5.28h1.888l-3.392,10.512h-1.744l-1.608-5.016c-0.368-1.176-0.672-2.216-0.928-3.464 h-0.048c-0.256,1.264-0.584,2.352-0.952,3.48l-1.696,5H223l-3.168-10.512L221.784,134.792L221.784,134.792z"></path> <path style="fill:#FFFFFF;" d="M238,134.792l1.392,5.344c0.304,1.168,0.584,2.256,0.784,3.344h0.072 c0.232-1.064,0.584-2.192,0.928-3.32l1.72-5.368h1.608l1.624,5.256c0.392,1.256,0.696,2.368,0.936,3.432h0.064 c0.168-1.064,0.464-2.168,0.808-3.408l1.504-5.28h1.888l-3.392,10.512H246.2l-1.608-5.016c-0.368-1.176-0.672-2.216-0.936-3.464 h-0.04c-0.264,1.264-0.584,2.352-0.96,3.48l-1.696,5h-1.736l-3.168-10.512L238,134.792L238,134.792z"></path> <path style="fill:#FFFFFF;" d="M254.216,134.792l1.392,5.344c0.304,1.168,0.584,2.256,0.784,3.344h0.072 c0.232-1.064,0.584-2.192,0.928-3.32l1.72-5.368h1.608l1.624,5.256c0.392,1.256,0.696,2.368,0.936,3.432h0.064 c0.168-1.064,0.464-2.168,0.808-3.408l1.504-5.28h1.888l-3.392,10.512h-1.736l-1.608-5.016c-0.368-1.176-0.672-2.216-0.936-3.464 h-0.04c-0.264,1.264-0.584,2.352-0.96,3.48l-1.696,5h-1.736l-3.168-10.512L254.216,134.792L254.216,134.792z"></path> </g> <g> <polygon style="fill:#666666;" points="64,372.688 126.144,372.688 149.456,396 64,396 "></polygon> <polygon style="fill:#666666;" points="448,372.688 385.856,372.688 362.544,396 448,396 "></polygon> </g> <g> <path style="fill:#FFFFFF;" d="M273.992,249.04v-6.392c-3.672-0.064-7.464-1.2-9.68-2.784l1.52-4.24 c2.28,1.52,5.568,2.72,9.112,2.72c4.488,0,7.528-2.592,7.528-6.2c0-3.48-2.464-5.632-7.144-7.528 c-6.448-2.536-10.44-5.44-10.44-10.944c0-5.248,3.736-9.24,9.552-10.184v-6.384h3.92v6.136c3.792,0.128,6.392,1.136,8.224,2.216 L285,209.632c-1.328-0.76-3.92-2.152-7.968-2.152c-4.872,0-6.704,2.912-6.704,5.44c0,3.288,2.344,4.936,7.848,7.216 c6.52,2.656,9.8,5.944,9.8,11.576c0,5-3.48,9.68-9.992,10.752v6.584h-3.992V249.04z"></path> <polygon style="fill:#FFFFFF;" points="230.424,285.872 201.928,210.288 181,210.288 181,203.424 206.672,203.424 236.84,283.456 "></polygon> </g> <polygon style="fill:#00C454;" points="312.608,318.84 217.736,318.84 199.336,258.216 331,258.216 "></polygon> <g> <circle style="fill:#FFFFFF;" cx="235.432" cy="343.272" r="14.952"></circle> <circle style="fill:#FFFFFF;" cx="297.44" cy="343.272" r="14.952"></circle> </g> </g></svg>
