<svg version="1.1" id="Layer_1" xmlns="http://www.w3.org/2000/svg" xmlns:xlink="http://www.w3.org/1999/xlink" viewBox="0 0 512 512" xml:space="preserve" fill="#000000"><g id="SVGRepo_bgCarrier" stroke-width="0"></g><g id="SVGRepo_tracerCarrier" stroke-linecap="round" stroke-linejoin="round"></g><g id="SVGRepo_iconCarrier"> <circle style="fill:#E0E0E0;" cx="256" cy="256" r="256"></circle> <rect x="64" y="164" style="fill:#3B3B3B;" width="384" height="232"></rect> <rect x="64" y="116" width="384" height="48.08"></rect> <circle style="fill:#00C454;" cx="97.144" cy="140.04" r="6.696"></circle> <circle style="fill:#FFFFFF;" cx="117.224" cy="140.04" r="6.696"></circle> <g> <circle style="fill:#666666;" cx="137.28" cy="140.04" r="6.696"></circle> <polygon style="fill:#666666;" points="400,151.8 192.328,151.8 206.672,128.288 414.352,128.288 "></polygon> </g> <g> <path style="fill:#FFFFFF;" d="M221.784,134.792l1.392,5.344c0.304,1.168,0.584,2.256,0.784,3.344h0.064 c0.24-1.064,0.584-2.192,0.936-3.32l1.712-5.368h1.608l1.632,5.256c0.392,1.256,0.696,2.368,0.928,3.432h0.072 c0.168-1.064,0.456-2.168,0.808-3.408l1.504-5.28h1.888l-3.392,10.512h-1.744l-1.608-5.016c-0.368-1.176-0.672-2.216-0.928-3.464 h-0.048c-0.256,1.264-0.584,2.352-0.952,3.48l-1.696,5H223l-3.168-10.512C219.832,134.792,221.784,134.792,221.784,134.792z"></path> <path style="fill:#FFFFFF;" d="M238,134.792l1.392,5.344c0.304,1.168,0.584,2.256,0.784,3.344h0.072 c0.232-1.064,0.584-2.192,0.928-3.32l1.72-5.368h1.608l1.624,5.256c0.392,1.256,0.696,2.368,0.936,3.432h0.064 c0.168-1.064,0.464-2.168,0.808-3.408l1.504-5.28h1.888l-3.392,10.512H246.2l-1.608-5.016c-0.368-1.176-0.672-2.216-0.936-3.464 h-0.04c-0.264,1.264-0.584,2.352-0.96,3.48l-1.696,5h-1.736l-3.168-10.512C236.056,134.792,238,134.792,238,134.792z"></path> <path style="fill:#FFFFFF;" d="M254.216,134.792l1.392,5.344c0.304,1.168,0.584,2.256,0.784,3.344h0.072 c0.232-1.064,0.584-2.192,0.928-3.32l1.72-5.368h1.608l1.624,5.256c0.392,1.256,0.696,2.368,0.936,3.432h0.064 c0.168-1.064,0.464-2.168,0.808-3.408l1.504-5.28h1.888l-3.392,10.512h-1.736l-1.608-5.016c-0.368-1.176-0.672-2.216-0.936-3.464 h-0.04c-0.264,1.264-0.584,2.352-0.96,3.48l-1.696,5h-1.736l-3.168-10.512C252.272,134.792,254.216,134.792,254.216,134.792z"></path> </g> <g> <polygon style="fill:#666666;" points="64,372.688 126.144,372.688 149.456,396 64,396 "></polygon> <polygon style="fill:#666666;" points="448,372.688 385.856,372.688 362.544,396 448,396 "></polygon> </g> <path style="fill:#FFFFFF;" d="M370.008,277.592L370.008,277.592L370.008,277.592c-0.048-0.104-31.12-66.88-113.912-66.88 s-114.056,66.784-114.104,66.88l0,0v0.008l0,0l0,0c0.04,0.104,31.12,66.88,113.904,66.88 C338.696,344.48,369.96,277.696,370.008,277.592L370.008,277.592L370.008,277.592z"></path> <circle cx="256" cy="277.592" r="38.448"></circle> <path style="fill:#00C454;" d="M256,243.144c18.992,0,34.448,15.456,34.448,34.448S274.992,312.048,256,312.048 s-34.448-15.456-34.448-34.448S237.008,243.144,256,243.144 M256,235.144c-23.448,0-42.448,19.008-42.448,42.448 S232.56,320.04,256,320.04s42.448-19.008,42.448-42.448S279.448,235.144,256,235.144L256,235.144z"></path> </g></svg>
